<svg xmlns="http://www.w3.org/2000/svg" xmlns:xlink="http://www.w3.org/1999/xlink" width="500" zoomAndPan="magnify" viewBox="0 0 375 374.999991" height="500" preserveAspectRatio="xMidYMid meet" version="1.0"><defs><g/><clipPath id="148601b7df"><path d="M 140.574219 93.03125 L 235 93.03125 L 235 187.402344 L 140.574219 187.402344 Z M 140.574219 93.03125 " clip-rule="nonzero"/></clipPath><clipPath id="89dcccbb97"><path d="M 200 79.707031 L 248.46875 79.707031 L 248.46875 128.242188 L 200 128.242188 Z M 200 79.707031 " clip-rule="nonzero"/></clipPath></defs><g clip-path="url(#148601b7df)"><path fill="#000000" d="M 232.734375 126.316406 C 237.730469 142.476562 233.832031 160.808594 221.042969 173.597656 C 202.636719 192.003906 172.789062 192.003906 154.382812 173.597656 C 135.972656 155.214844 135.972656 125.367188 154.382812 106.957031 C 167.242188 94.09375 185.652344 90.222656 201.886719 95.320312 L 200.988281 103.410156 C 187.152344 98.441406 171.089844 101.488281 160 112.578125 C 144.714844 127.886719 144.714844 152.691406 160 167.976562 C 175.3125 183.289062 200.113281 183.289062 215.398438 167.976562 C 226.4375 156.960938 229.511719 140.976562 224.640625 127.191406 L 232.734375 126.316406 " fill-opacity="1" fill-rule="evenodd"/></g><g clip-path="url(#89dcccbb97)"><path fill="#ffffff" d="M 200.039062 128.140625 L 245.722656 123.144531 L 248.46875 105.683594 L 222.492188 79.707031 L 205.035156 82.457031 L 200.039062 128.140625 " fill-opacity="1" fill-rule="evenodd"/></g><path fill="#000000" d="M 226.738281 87.726562 L 221.570312 82.53125 L 209.804688 84.378906 L 216.972656 91.546875 Z M 238.054688 99.015625 L 229.164062 90.125 L 219.371094 93.972656 L 234.207031 108.804688 Z M 243.800781 118.371094 L 245.648438 106.609375 L 240.453125 101.4375 L 236.632812 111.203125 Z M 214.375 93.644531 L 207.257812 86.550781 L 204.109375 115.226562 Z M 212.953125 124.066406 L 241.625 120.921875 L 234.53125 113.800781 Z M 203.035156 125.140625 L 203.460938 125.09375 L 232.183594 111.453125 L 216.722656 95.992188 L 203.085938 124.714844 L 203.035156 125.140625 " fill-opacity="1" fill-rule="evenodd"/><g fill="#000000" fill-opacity="1"><g transform="translate(129.331343, 227.752264)"><g><path d="M 8.40625 -7.109375 C 8.40625 -5.960938 8.289062 -4.9375 8.0625 -4.03125 C 7.832031 -3.125 7.488281 -2.351562 7.03125 -1.71875 C 6.570312 -1.09375 6.003906 -0.613281 5.328125 -0.28125 C 4.648438 0.0507812 3.867188 0.21875 2.984375 0.21875 C 2.578125 0.21875 2.175781 0.1875 1.78125 0.125 C 1.382812 0.0703125 0.96875 -0.0195312 0.53125 -0.15625 C 0.550781 -0.445312 0.570312 -0.734375 0.59375 -1.015625 C 0.625 -1.296875 0.65625 -1.570312 0.6875 -1.84375 C 0.707031 -2 0.765625 -2.128906 0.859375 -2.234375 C 0.960938 -2.335938 1.113281 -2.390625 1.3125 -2.390625 C 1.445312 -2.390625 1.617188 -2.347656 1.828125 -2.265625 C 2.046875 -2.191406 2.332031 -2.15625 2.6875 -2.15625 C 3.625 -2.15625 4.335938 -2.539062 4.828125 -3.3125 C 5.316406 -4.082031 5.5625 -5.328125 5.5625 -7.046875 L 5.5625 -20.53125 L 8.40625 -20.53125 Z M 8.40625 -7.109375 "/></g></g></g><g fill="#000000" fill-opacity="1"><g transform="translate(139.531976, 227.752264)"><g><path d="M 14.265625 -20.53125 L 14.265625 -18.21875 L 5.125 -18.21875 L 5.125 -11.484375 L 12.484375 -11.484375 L 12.484375 -9.25 L 5.125 -9.25 L 5.125 -2.3125 L 14.28125 -2.3125 L 14.265625 0 L 2.265625 0 L 2.265625 -20.53125 Z M 14.265625 -20.53125 "/></g></g></g><g fill="#000000" fill-opacity="1"><g transform="translate(155.15316, 227.752264)"><g><path d="M 0.1875 -20.53125 L 2.578125 -20.53125 C 2.816406 -20.53125 3.019531 -20.46875 3.1875 -20.34375 C 3.363281 -20.226562 3.476562 -20.070312 3.53125 -19.875 L 7.515625 -5.703125 C 7.660156 -5.203125 7.796875 -4.617188 7.921875 -3.953125 C 7.984375 -4.273438 8.050781 -4.582031 8.125 -4.875 C 8.195312 -5.175781 8.273438 -5.457031 8.359375 -5.71875 L 12.9375 -19.859375 C 12.988281 -20.035156 13.101562 -20.191406 13.28125 -20.328125 C 13.457031 -20.460938 13.664062 -20.53125 13.90625 -20.53125 L 14.734375 -20.53125 C 14.984375 -20.53125 15.1875 -20.46875 15.34375 -20.34375 C 15.507812 -20.226562 15.625 -20.070312 15.6875 -19.875 L 20.265625 -5.703125 C 20.347656 -5.453125 20.425781 -5.179688 20.5 -4.890625 C 20.570312 -4.609375 20.640625 -4.3125 20.703125 -4 C 20.765625 -4.3125 20.828125 -4.613281 20.890625 -4.90625 C 20.953125 -5.195312 21.019531 -5.460938 21.09375 -5.703125 L 25.0625 -19.859375 C 25.113281 -20.035156 25.226562 -20.191406 25.40625 -20.328125 C 25.59375 -20.460938 25.804688 -20.53125 26.046875 -20.53125 L 28.28125 -20.53125 L 22.046875 0 L 19.46875 0 L 14.53125 -15.5625 C 14.476562 -15.707031 14.425781 -15.863281 14.375 -16.03125 C 14.332031 -16.207031 14.285156 -16.394531 14.234375 -16.59375 C 14.191406 -16.394531 14.144531 -16.207031 14.09375 -16.03125 C 14.050781 -15.863281 14.003906 -15.707031 13.953125 -15.5625 L 8.984375 0 L 6.421875 0 Z M 0.1875 -20.53125 "/></g></g></g><g fill="#000000" fill-opacity="1"><g transform="translate(183.614958, 227.752264)"><g><path d="M 14.265625 -20.53125 L 14.265625 -18.21875 L 5.125 -18.21875 L 5.125 -11.484375 L 12.484375 -11.484375 L 12.484375 -9.25 L 5.125 -9.25 L 5.125 -2.3125 L 14.28125 -2.3125 L 14.265625 0 L 2.265625 0 L 2.265625 -20.53125 Z M 14.265625 -20.53125 "/></g></g></g><g fill="#000000" fill-opacity="1"><g transform="translate(199.236142, 227.752264)"><g><path d="M 5 -2.390625 L 12.921875 -2.390625 L 12.921875 0 L 2.15625 0 L 2.15625 -20.53125 L 5 -20.53125 Z M 5 -2.390625 "/></g></g></g><g fill="#000000" fill-opacity="1"><g transform="translate(212.685982, 227.752264)"><g><path d="M 5.140625 -8.53125 L 5.140625 0 L 2.296875 0 L 2.296875 -20.53125 L 7.921875 -20.53125 C 9.171875 -20.53125 10.25 -20.394531 11.15625 -20.125 C 12.070312 -19.863281 12.820312 -19.484375 13.40625 -18.984375 C 14 -18.492188 14.4375 -17.894531 14.71875 -17.1875 C 15 -16.488281 15.140625 -15.703125 15.140625 -14.828125 C 15.140625 -14.109375 15.03125 -13.4375 14.8125 -12.8125 C 14.601562 -12.1875 14.296875 -11.625 13.890625 -11.125 C 13.492188 -10.625 13.003906 -10.191406 12.421875 -9.828125 C 11.835938 -9.472656 11.175781 -9.203125 10.4375 -9.015625 C 10.613281 -8.898438 10.78125 -8.769531 10.9375 -8.625 C 11.09375 -8.488281 11.242188 -8.320312 11.390625 -8.125 L 16.90625 0 L 14.375 0 C 13.882812 0 13.503906 -0.191406 13.234375 -0.578125 L 8.375 -7.890625 C 8.21875 -8.117188 8.046875 -8.28125 7.859375 -8.375 C 7.679688 -8.476562 7.410156 -8.53125 7.046875 -8.53125 Z M 5.140625 -10.609375 L 7.8125 -10.609375 C 8.5625 -10.609375 9.21875 -10.703125 9.78125 -10.890625 C 10.351562 -11.085938 10.832031 -11.363281 11.21875 -11.71875 C 11.601562 -12.070312 11.890625 -12.492188 12.078125 -12.984375 C 12.273438 -13.484375 12.375 -14.03125 12.375 -14.625 C 12.375 -17.070312 10.890625 -18.296875 7.921875 -18.296875 L 5.140625 -18.296875 Z M 5.140625 -10.609375 "/></g></g></g><g fill="#000000" fill-opacity="1"><g transform="translate(230.056739, 227.752264)"><g><path d="M 9.21875 -8.203125 L 9.21875 0 L 6.375 0 L 6.375 -8.171875 L 0 -20.53125 L 2.5 -20.53125 C 2.738281 -20.53125 2.929688 -20.46875 3.078125 -20.34375 C 3.234375 -20.226562 3.363281 -20.070312 3.46875 -19.875 L 6.984375 -11.953125 C 7.160156 -11.628906 7.316406 -11.320312 7.453125 -11.03125 C 7.585938 -10.75 7.707031 -10.46875 7.8125 -10.1875 C 7.914062 -10.46875 8.03125 -10.75 8.15625 -11.03125 C 8.289062 -11.320312 8.445312 -11.625 8.625 -11.9375 L 12.109375 -19.875 C 12.191406 -20.03125 12.3125 -20.175781 12.46875 -20.3125 C 12.625 -20.457031 12.820312 -20.53125 13.0625 -20.53125 L 15.59375 -20.53125 Z M 9.21875 -8.203125 "/></g></g></g><g fill="#000000" fill-opacity="1"><g transform="translate(175.257121, 249.17767)"><g><path d="M 4.140625 0.1875 C 3.023438 0.1875 2.066406 0.0625 1.265625 -0.1875 L 1.265625 -12.421875 C 2.066406 -12.660156 3.023438 -12.78125 4.140625 -12.78125 C 5.390625 -12.78125 6.300781 -12.507812 6.875 -11.96875 C 7.445312 -11.425781 7.734375 -10.585938 7.734375 -9.453125 C 7.734375 -8.203125 7.253906 -7.3125 6.296875 -6.78125 L 6.296875 -6.71875 C 7.617188 -6.332031 8.28125 -5.234375 8.28125 -3.421875 C 8.28125 -2.566406 8.144531 -1.875 7.875 -1.34375 C 7.601562 -0.820312 7.164062 -0.4375 6.5625 -0.1875 C 5.96875 0.0625 5.160156 0.1875 4.140625 0.1875 Z M 3.953125 -7.203125 C 4.679688 -7.203125 5.222656 -7.382812 5.578125 -7.75 C 5.941406 -8.125 6.125 -8.691406 6.125 -9.453125 C 6.125 -10.890625 5.398438 -11.609375 3.953125 -11.609375 L 2.875 -11.609375 L 2.875 -7.203125 Z M 4.140625 -0.984375 C 5.035156 -0.984375 5.675781 -1.171875 6.0625 -1.546875 C 6.457031 -1.929688 6.65625 -2.554688 6.65625 -3.421875 C 6.65625 -4.359375 6.457031 -5.023438 6.0625 -5.421875 C 5.675781 -5.828125 5.035156 -6.03125 4.140625 -6.03125 L 2.875 -6.03125 L 2.875 -0.984375 Z M 4.140625 -0.984375 "/></g></g></g><g fill="#000000" fill-opacity="1"><g transform="translate(184.257098, 249.17767)"><g><path d="M 4.140625 0.1875 C 3.015625 0.1875 2.175781 -0.171875 1.625 -0.890625 C 1.082031 -1.609375 0.8125 -2.8125 0.8125 -4.5 C 0.8125 -6.1875 1.082031 -7.390625 1.625 -8.109375 C 2.175781 -8.828125 3.015625 -9.1875 4.140625 -9.1875 C 5.265625 -9.1875 6.097656 -8.828125 6.640625 -8.109375 C 7.191406 -7.390625 7.46875 -6.1875 7.46875 -4.5 C 7.46875 -2.8125 7.191406 -1.609375 6.640625 -0.890625 C 6.097656 -0.171875 5.265625 0.1875 4.140625 0.1875 Z M 4.140625 -0.8125 C 4.640625 -0.8125 5.046875 -1.09375 5.359375 -1.65625 C 5.679688 -2.21875 5.84375 -3.164062 5.84375 -4.5 C 5.84375 -5.832031 5.679688 -6.78125 5.359375 -7.34375 C 5.046875 -7.90625 4.640625 -8.1875 4.140625 -8.1875 C 3.640625 -8.1875 3.226562 -7.90625 2.90625 -7.34375 C 2.59375 -6.78125 2.4375 -5.832031 2.4375 -4.5 C 2.4375 -3.164062 2.59375 -2.21875 2.90625 -1.65625 C 3.226562 -1.09375 3.640625 -0.8125 4.140625 -0.8125 Z M 4.140625 -0.8125 "/></g></g></g><g fill="#000000" fill-opacity="1"><g transform="translate(192.537069, 249.17767)"><g><path d="M 0.265625 0 L 2.515625 -4.59375 L 0.34375 -9 L 1.96875 -9 L 3.59375 -5.671875 L 5.234375 -9 L 6.859375 -9 L 4.6875 -4.59375 L 6.9375 0 L 5.3125 0 L 3.59375 -3.515625 L 1.890625 0 Z M 0.265625 0 "/></g></g></g></svg>